<svg xmlns="http://www.w3.org/2000/svg" xml:space="preserve" width="228.42" height="117.13" viewBox="0 0 228.42 117.13">
    <title>Dezeen</title>
    <desc>
        British architecture, interior, and graphic design magazine
    </desc>
    <path fill="#090909" d="M32.69 22.4a18.43 18.43 0 0 0-12.93-5C8.08 17.4 0 28.1 0 41.21S8.08 65 19.76 65c6.55 0 10.06-2.25 12.75-5.48h.18v4.4h11V0h-11zM22.27 54.95c-8.26 0-10.69-7.19-10.78-13.74.09-6.56 2.51-13.74 10.78-13.74s10.68 7.18 10.77 13.74c-.09 6.55-2.51 13.74-10.77 13.74m60.61-6.47c-1.08 1.53-4.49 6.47-13.11 6.47A11.55 11.55 0 0 1 58 43.81h33.58c0-16.25-6.64-26.4-21.82-26.4-14.72-.01-23.25 10.24-23.25 23.8S55.04 65 69.77 65c12.39 0 18.94-5.93 22.36-11.14zM69.77 26.4c7.36 0 10.33 6.55 10.33 9H58a11.69 11.69 0 0 1 11.77-9m19.933 52.663v-8.44h-36.01v9.521h21.55l-24.06 27.479v8.44h38.52v-9.52h-23.8zm24.6 28.021a11.54 11.54 0 0 1-11.76-11.13h33.58c0-16.25-6.64-26.4-21.82-26.4-14.73 0-23.26 10.24-23.26 23.79s8.53 23.79 23.26 23.79c12.39 0 18.94-5.93 22.36-11.14l-9.25-5.39c-1.08 1.54-4.49 6.48-13.11 6.48m0-28.56c7.36 0 10.33 6.56 10.33 9h-22.09a11.69 11.69 0 0 1 11.76-9m48.877 28.56a11.55 11.55 0 0 1-11.76-11.13H185c0-16.25-6.65-26.4-21.82-26.4-14.73 0-23.26 10.24-23.26 23.79s8.57 23.79 23.26 23.79c12.39 0 18.94-5.93 22.36-11.14l-9.25-5.39c-1.04 1.54-4.46 6.48-13.11 6.48m0-28.56c7.36 0 10.32 6.56 10.32 9h-22.05a11.69 11.69 0 0 1 11.73-9m49.6-8.981a15.82 15.82 0 0 0-12.39 5.57h-.21v-4.49h-11v45.43h11v-24c0-8.35 4.4-11.94 9.7-11.94 5.66 0 7.54 4 7.54 8.17v27.75h11v-31.04c-.02-9.97-4.87-15.45-15.64-15.45"/>
    &gt;
</svg>
