<svg xmlns="http://www.w3.org/2000/svg" width="147.652" height="34.537" viewBox="0 0 147.652 34.537">
    <defs>
        <clipPath id="a">
            <path fill="none" d="M0 0h147.652v34.537H0z" data-name="Rectangle 164"/>
        </clipPath>
    </defs>
    <g data-name="Vector Smart Object">
        <g clip-path="url(#a)" data-name="Group 244">
            <path d="M10.48 28.854c3.273 0 3.6 1.375 3.6 2.971H7.069c0-1.513.99-1.623 2.531-1.623v-.165H4.263v.165c1.54 0 2.586.11 2.586 1.623H.248c0-1.6.248-2.861 3.6-2.861v-.165H0v5.717h.248v-1.018h13.835v1.018h.248v-5.8H10.48z" data-name="Path 1947"/>
            <path d="M10.48.66c3.273 0 3.6 1.375 3.6 2.971H7.069c0-1.513.99-1.623 2.531-1.623v-.165H4.263v.165c1.54 0 2.586.11 2.586 1.623H.248c0-1.6.248-2.861 3.6-2.861V.605H0v5.721h.248V5.309h13.835v1.017h.248V.495H10.48z" data-name="Path 1948"/>
            <path d="M.248 21.977v-1.018H0V24.7h.248v-1.017h13.835v1.018h.248v-5.832H10.48v.165c3.273 0 3.6 1.375 3.6 2.971H.248Z" data-name="Path 1949"/>
            <path d="M.248 12.873v-1.046H0v3.741h.248v-1.017h13.835v1.018h.248V9.737H10.48v.165c3.273 0 3.6 1.375 3.6 2.971Z" data-name="Path 1950"/>
            <path d="M21.152 3.218v27.726h3.878a16.7 16.7 0 0 0 5.611-.908 13 13 0 0 0 4.4-2.641 13.58 13.58 0 0 0 4.346-10.287 13.58 13.58 0 0 0-3.988-10.04 13.15 13.15 0 0 0-4.535-2.832 17 17 0 0 0-5.584-.99h-4.128Zm15.871 26.213c-3.3 2.971-6.821 4.236-12.13 4.236h-6.629V.495h6.656c5.281 0 8.912 1.293 12.185 4.236a16.66 16.66 0 0 1 5.259 12.378 16.22 16.22 0 0 1-5.336 12.323" data-name="Path 1951"/>
            <path d="M45.412 33.64V.495h16.5v2.723H48.328v10.947h13.284v2.7H48.328v14.079h13.584v2.7Z" data-name="Path 1952"/>
            <path d="M110.079 2.751a14.359 14.359 0 1 0 14.248 14.358 14.36 14.36 0 0 0-14.248-14.358m0 31.467A17.246 17.246 0 0 1 92.86 17.164a17.219 17.219 0 0 1 34.438-.055 17.27 17.27 0 0 1-17.219 17.081" data-name="Path 1953"/>
            <path d="M132.799 3.218v12.708h2.833a10.8 10.8 0 0 0 3.081-.413 6.35 6.35 0 0 0 2.338-1.238 6 6 0 0 0 1.925-4.759 6.02 6.02 0 0 0-2.393-5.061 7.3 7.3 0 0 0-2.338-.935 14 14 0 0 0-2.668-.275h-2.778ZM129.911.495h5.006c3.6 0 5.694.523 7.482 1.76a9.12 9.12 0 0 1 3.493 6.877v.853a8.17 8.17 0 0 1-4.841 7.51 12.2 12.2 0 0 1-3.878.908h-.162l10.645 15.238h-3.548l-10.346-15.075h-.963V33.64h-2.888Z" data-name="Path 1954"/>
            <path d="M81.446.138a16.04 16.04 0 0 1 9.737 3.218 6 6 0 0 1 .715.55v3.769a13.3 13.3 0 0 0-5.639-3.851 13.8 13.8 0 0 0-4.979-.935 14.5 14.5 0 0 0-14.138 14.138v.688a14.37 14.37 0 0 0 13.423 13.863h1.43a15.94 15.94 0 0 0 7.537-2.641 17 17 0 0 0 1.65-1.32 6 6 0 0 0 .66-.605v3.658a16.78 16.78 0 0 1-10.507 3.686 17.3 17.3 0 0 1-17.218-17.054A17.436 17.436 0 0 1 81.446.138" data-name="Path 1955"/>
        </g>
    </g>
</svg>
