<svg xmlns="http://www.w3.org/2000/svg" data-name="Layer 1" viewBox="0 0 730.51 248.01">
    <title>HouseAndGarden MAIN</title>
    <path d="M725.42 86.48c-1 15.8-3.87 24.11-16.48 24.11-5.74 0-12.3-5-18.77-12 9.15-11.15 11.78-17.86 15.64-27.42 5-12.41 9.39-16.18 22.47-17V51.4h-41v2.84c9.38 0 16 2.38 16 9 0 8.51-7.37 22.77-15.37 33-6.72-7.69-13.25-17.11-18.56-24.81a217 217 0 0 1-14.24-22.83c24.18-11.38 32-17.86 32-28.69 0-12.7-11.65-19.83-27.49-19.83-19 0-34.65 14-34.65 31.26 0 7.49 3.32 16.43 7.56 24.83-14.78 7.9-31.14 19.53-31.14 36.35 0 21.9 15.93 31.87 38.95 31.87a59.47 59.47 0 0 0 34.21-10.6c7 6.15 15 10.6 23.54 10.6 21.58 0 30.45-16.35 30.72-37.83ZM659.73 2.6c9.42 0 12.44 5.31 12.44 17.23 0 14.43-3.91 18.54-18.43 25.87-4.38-8.8-7.91-18.4-7.91-26.62 0-7.81 3.36-16.48 13.9-16.48m-4.87 114.7c-16.75 0-30.45-11-30.45-32.35 0-11.43 3.6-19 10.34-24.86A204 204 0 0 0 648.9 82c4.86 6.63 13 19.58 23.26 29.42-5.37 3.78-10.74 5.88-17.3 5.88M124.72 7.19c1.79-1.8 5-2.19 12.15-2.19h5.48V2.41H79.64V5h4.56c7.18 0 10.33.39 12.16 2.19 2.39 2.39 2.81 5.78 2.81 21.92v30.37h-56V29.11c0-16.14.4-19.53 2.82-21.92 1.8-1.8 5-2.19 12.16-2.19h4.56V2.41H0V5h5.47c7.18 0 10.34.39 12.16 2.19 2.4 2.39 2.79 5.78 2.79 21.92v66.17c0 16.15-.39 19.53-2.82 21.93-1.79 1.79-5 2.19-12.16 2.19H0v2.59h62.71v-2.59h-4.56c-7.18 0-10.33-.4-12.16-2.19-2.39-2.4-2.82-5.78-2.82-21.93V62.67h56v32.61c0 16.15-.39 19.53-2.81 21.93-1.8 1.79-5 2.19-12.16 2.19h-4.56v2.59h62.71v-2.59h-5.48c-7.17 0-10.33-.4-12.15-2.19-2.4-2.4-2.82-5.78-2.82-21.93V29.11c0-16.14.39-19.53 2.82-21.92m341.15 92.85c0-18.15-14.05-22-32.89-27.82-21.66-6.73-43.08-12.49-43-38.15 0-20.11 15-34 36.27-34 18.54 0 30.16 11.08 36.95 11.08 4.18 0 6-3.18 6.18-8.76h2.58v42.18h-2.58c-4.43-26.68-21.84-41.91-42.96-41.91-16.54 0-22.32 10.14-22.32 18.91 0 16.36 15.87 21 33.09 26.43 20.29 6.35 44.11 13.05 44.11 37.74 0 23.33-13.93 38.62-41.66 38.62-20.77 0-28.7-11.57-39-11.57-4.37 0-7 4-7.37 9.17h-2.85V70.79h2.59c2.6 23.12 18.74 51 46.64 51 20.51 0 26.22-8.8 26.22-21.75"/>
    <path d="M201.29 124.36c33.7 0 59.61-27.28 59.61-62.16S234.99.03 201.29.03s-59.61 27.29-59.61 62.17 25.91 62.16 59.61 62.16m0-2.59c-22.92 0-35.69-21.37-35.69-59.57s12.82-59.58 35.69-59.58 35.7 21.48 35.7 59.58-12.78 59.59-35.7 59.59Zm99.44-92.66c0-16.14.41-19.52 2.82-21.92 1.8-1.79 5-2.19 12.16-2.19h5.47V2.41h-63.62V5h5.48c7.17 0 10.34.39 12.15 2.19 2.41 2.38 2.82 5.78 2.82 21.92v53.08c0 16.54 6.55 42.17 50.19 42.17 21.59 0 42.39-6.78 42.39-41.59V32.3c0-21.06 6.29-27.3 20.65-27.3V2.41h-44.95V5c14.25 0 20.64 6.24 20.64 27.3V83c0 34.63-22.57 38-34.8 38-19.94 0-31.46-11.9-31.46-35.61Zm286.24 46.58c-1.4 24.52-15.18 43.71-39.3 43.71h-22.06V60.53h9.81c15.14 0 23.71 5.26 25.71 27.78h2.59V29.53h-2.59c-2 22.52-10.57 27.82-25.71 27.82h-9.79V5h21.43c22.13 0 34.29 14.81 36.88 37.5h2.58V2.41h-104.1V5h5.49c7.17 0 10.33.39 12.15 2.19 2.4 2.39 2.82 5.78 2.82 21.93v66.16c0 16.15-.39 19.53-2.82 21.93-1.79 1.79-5 2.19-12.15 2.19h-5.49v2.59h107.13v-46.3Zm-36.84 59.81c22.12 0 34.25 13.26 36.84 35.95h2.58v-38.53H482.42v2.58h5.49c7.17 0 10.33.39 12.15 2.19 2.4 2.39 2.82 5.77 2.82 21.92v59.85c0 16.15-.39 19.53-2.82 21.93-1.79 1.79-5 2.19-12.15 2.19h-5.49v2.59h107.13v-44h-2.61c-1.4 24.52-15.15 41.4-39.27 41.4h-22.06v-56.16h9.81c15.14 0 23.71 3.72 25.71 26.24h2.59v-55.7h-2.59c-2 22.52-10.57 26.29-25.71 26.29h-9.79V135.5Zm-191.88 81.39c0 11.84-2 24.92-10.34 24.92-3.77 0-5.06-5-5.72-8.17-1.07-5.14-1.34-10.62-2.56-18.07-2.71-16.54-12.92-24.7-27.53-27.77 22.51-3.39 32-13.5 32-27 0-15.61-10.36-27.92-39.2-27.92h-63.98v2.58h2.5c6.84 0 10.12.6 11.56 2.3 2.07 2.45 2.65 6.07 2.65 40.42v23.66c0 34.35-.58 36.81-2.65 39.26-1.44 1.69-4.72 2.44-11.56 2.44h-2.5v2.59h57.85v-2.59h-4.23c-6.84 0-10.12-.75-11.57-2.44-2.06-2.45-2.59-4.91-2.59-39.26v-12.69h13.71c14 0 18 5.21 19.11 17.62.44 5.14.78 8.2 1.39 15.18 1.3 14.66 9.71 25.7 24.43 25.7 19.31 0 22-14 22-30.76Zm-58-30.94h-19.83v-50.16c5.09-.19 14.51-.23 18.85-.23 15.48 0 20.51 9.2 20.51 25.31-.04 14.13-1.81 25.08-19.54 25.08Zm122.22 60.22h-59.68v-2.58h4.23c6.84 0 10.12-.76 11.57-2.45 2.07-2.45 2.64-5.91 2.64-40.26v-22.66c0-34.35-.57-38-2.64-40.42-1.45-1.7-4.73-2.3-11.57-2.3h-4.23v-2.58h59.63c38.41 0 57.76 26.8 57.76 56.63s-19.08 56.62-57.74 56.62m-4.79-110.63c-4.73 0-10.13 0-13.71.22v107.45c3.59.19 9 .19 13.73.19 26.61 0 37.76-20.27 37.76-53.85s-11.16-54-37.78-54m-306.33 79.81c0-13.59.89-16.43 2.45-18.12s4.77-2.46 11.56-2.46h2.66v-2.62h-56v2.63h3c6.8 0 9.69.77 11.25 2.46s2.44 4.53 2.44 18.12c0 14.35-8.29 30.06-27.48 30.06-23.22 0-33.6-28.27-33.6-55.84 0-35.67 13.79-57.44 36.84-57.44 22.09 0 35.48 21.22 39.25 40.27h2.67V130.7h-2.68c-.56 5.67-3.81 9.82-7.15 9.82-5.47 0-14.16-11-32.09-11-37.93 0-60.74 28.32-60.74 60 0 30.36 24.09 58.44 57.5 58.44 21.14 0 26.12-13 34.43-13 5.59 0 11.18 3.35 13.2 10.37h2.42Zm577.83-82.44v2.57c13.22.75 18.38 8.3 18.38 25.85v49.8l-64.11-78.22h-38.24v2.58c8.88.18 14 4 18.71 10.08l1.19 1.43v70.88c0 17.55-5.09 25.69-18.38 25.69v2.59h40.46v-2.59c-13.3 0-18.38-8.14-18.38-25.69v-66.43l79.33 95.51h3l.17-85.63c0-17.55 5.17-25.1 18.38-25.85v-2.57Zm-471.22 89.6-36.79-91.86h-1.07l-36.65 91.92c-5.46 13.69-11.76 21-23.76 21v2.59h39.41v-2.59c-8.73 0-14.27-3.47-14.27-8.93a25.1 25.1 0 0 1 1.85-9.67l6.55-17h33.6l7.25 18.5a21.7 21.7 0 0 1 1.89 8.38c0 4.15-2.2 8.68-10.72 8.68h-3.8v2.59h56.79v-2.59c-8.45.04-13.56-5.06-20.28-21.02m-63.51-17.68 15.46-40 15.67 40Z"/>
    <path d="M726.42 148.45a4.14 4.14 0 1 1 4.12-4.15 4.15 4.15 0 0 1-4.12 4.15m0-7.7a3.56 3.56 0 1 0 3.55 3.55 3.45 3.45 0 0 0-3.55-3.51Zm.6 3.76 1.4 2.09h-.58l-1.33-2.1h-1.09v2.1h-.53v-4.65h2c1.22 0 1.62.45 1.62 1.28s-.64 1.22-1.52 1.28Zm-.25-2.09h-1.35v1.61h1.4c.54 0 1.1-.11 1.1-.81s-.61-.8-1.18-.8Z"/>
</svg>
