<svg xmlns="http://www.w3.org/2000/svg" xml:space="preserve" viewBox="20 210 620 230">
    <path fill="currentColor" d="M26.9 218.2v170.9h71v-27.4H54.1V218.2zm75.6 46.2h24.8v124.7h-24.8zm70 80.3h.4l16.4-80.3h24.8l-29.2 124.7h-24.4l-29.2-124.7h24.8zm45.6-80.3h24.8v124.7h-24.8zm31.5 124.7V264.4h24v14.2c9.1-9.2 17.5-16.5 27.8-16.5 15.2 0 23.1 8.9 23.1 32.1v94.9h-24.9v-91.7c0-8.3-2.4-13.7-9.1-13.7-5.1 0-10.8 5.6-16.1 11.3v94.2c0-.1-24.8-.1-24.8-.1m133.6 8.3c7.5.7 9.1 2.5 9.1 6.7 0 6.4-6.9 9.9-18.8 9.9-14.6 0-22.7-2.7-22.7-9.2 0-4.6 2.6-7.1 5.1-10.1zM417.1 262c-9.3 0-15.4 5.3-21.7 14.4-6.6-8.9-16.9-14.2-28-14.4-27.8 0-36.7 20.2-36.7 47 0 20.9 4.1 34.2 16.1 43.3-6.1 4.4-15 11-15 20.9 0 8.1 4.3 13.5 10.2 17.7-5.9 4.3-15 10-15 19.5 0 14 14.6 22.7 41 22.7 28.8 0 47.7-10.1 47.7-31.4 0-45.1-62.3-21.1-62.3-36.7 0-3 2.9-5 4.3-7.3 3.3 1.2 6.8 1.7 10.2 1.6 24.4 0 35.9-17.9 35.9-49.1 0-7.5-1.6-13.8-3.1-22 3.4-1.1 5.9-2.7 8.5-2.7 2.6.4 5.2 1 7.7 1.9zm-36.7 47.5c0 21.8-3.6 26.3-14.2 26.3-7.5 0-11.8-7.8-11.8-23.4 0-19.5 3.6-27 13-27 8.7 0 13 8 13 24.1m115.1 24.2v-29.1c0-25.5-16.4-42.4-39.5-42.4-23.7 0-39.5 16.9-39.5 44.3v40.8c0 27.3 15.8 44.3 39.5 44.3 25 0 38.2-15 39.5-40.8h-24.8c0 9.6-4.1 17.4-14.6 17.4-8.3 0-14.6-5.5-14.6-17.9v-16.5h54zm-53.9-23.4v-6.9c0-11 4.5-17.9 14.6-17.9s14.6 6.9 14.6 17.9v6.9zm53.9-22.5v-23.4h9.9v-29.5h24.8v29.5h16v23.4h-15.9V357c0 6.2 4.5 9.2 11.3 9.2 1.6 0 3.3 0 4.9-.2v24.3c-4.7.8-9.4 1.2-14.2 1.1-16.1 0-26.8-6.9-26.8-24.8v-78.9h-10zM602 307.5V302c0-9.6-5.9-14.7-14.6-14.7s-14.6 5-14.6 14.7v49.5c0 9.6 5.9 14.7 14.6 14.7s14.6-5 14.6-14.7v-7.8h24.8v.5c0 33-14.6 47.2-39.5 47.2s-39.5-14.2-39.5-47.2v-34.8c0-33 14.6-47.2 39.5-47.2 24.3 0 38.8 13.8 39.2 45.4zm-384-72.6h24.9v23.5H218zm-115.4 0h24.9v23.5h-24.9z"/>
</svg>
