<svg xmlns="http://www.w3.org/2000/svg" xml:space="preserve" viewBox="0 0 866.7 182.2">
    <path d="m410.3 0-1.5 9.1h-.5l-.4-2.1c-.4-3.6-1.8-4.4-7.2-4.5l-7-.1v28.4c0 5.6.8 6.6 4.1 7l2.2.2v.6c-1 0-6.3-.1-8.4-.1s-7.4.1-8.4.1V38l2.1-.3c3.3-.4 4.1-1.4 4.1-7V2.3l-6.4.2c-5.4.1-7 .8-8.6 4.5l-.9 2.1h-.5l1.6-9.1h.3c1.4 1.1 1.4 1.3 17 1.3 15.9 0 16.2-.2 18.1-1.3zm45.5 38.6c-1.2 0-5.4-.1-7.4-.1-2.1 0-7.1.1-8.1.1V38l2.5-.3c2.8-.4 3.4-1.6 3.4-6.9V20.4h-20.4v10.4c0 5.4.7 6.6 3.4 6.9l2.5.3v.6c-1.1 0-6.1-.1-8.1-.1-2.1 0-6.2.1-7.4.1V38l2-.3c2.6-.3 3.2-1.6 3.2-7V8.9c0-5.4-.6-6.7-3.2-7l-2-.3V1c1.2 0 5.4.1 7.4.1 2.1 0 7.1-.1 8.1-.1v.6l-2.5.3c-2.8.4-3.4 1.6-3.4 6.9v10.1h20.4V8.8c0-5.4-.7-6.6-3.4-6.9l-2.5-.3V1c1.1 0 6.1.1 8.1.1 2.1 0 6.2-.1 7.4-.1v.6l-2 .3c-2.6.3-3.2 1.6-3.2 7v21.8c0 5.4.6 6.7 3.2 7l2 .3zm35.6-6.9-1.6 6.9h-6c-3.3 0-9.1-.1-11.2-.1s-9.4.1-10.6.1V38l2-.3c2.6-.3 3.2-1.6 3.2-7V8.9c0-5.4-.6-6.7-3.2-7l-2-.3V1c1.2 0 8.5.1 10.6.1s9.9-.1 11-.1h4.6l1.6 6.9h-.7l-1-1.6c-2.2-3.7-3.7-4.3-8.9-4.3h-1.5c-3.1 0-4.9.3-6.1.7v15.9l5.1-.1c5.4-.1 6.7-.7 7.1-3.9l.3-2.2h.8c0 1.1-.1 4.6-.1 6.7s.1 5.2.1 6.4h-.8L484 24c-.5-3.4-1.7-4.1-7.2-4.2l-5.1-.1v11c0 5.8.9 6.9 6 6.9h3.3c5.1 0 6.5-.5 8.8-4.3l1-1.7zM54 149.2l-3.5 14.3h-11c-6.1 0-16-.1-19.9-.1s-17.5.2-19.7.2v-1.1l3.8-.5c4.9-.6 6-2.9 6-13v-40.4c0-10-1.1-12.4-6-13L0 95.1V94c2.2 0 10.5.2 14.3.2 3.9 0 13.1-.2 15.1-.2v1.1l-4 .5c-6.2.8-7.6 2.5-7.6 13v40.3c0 10.9 1.7 12.9 11.1 12.9h5.3c9.5 0 12.5-1.2 16.4-8.6l2.1-4zm45.7 15.7c-20 0-34.1-13.6-34.1-36 0-22.2 15.7-36 34.1-36 20 0 34.1 13.6 34.1 36 0 22.1-15.7 36-34.1 36m-1.5-70.4c-14.3 0-23.1 11.6-23.1 31.4 0 21.9 9.4 37.3 26.2 37.3 14.3 0 23.1-11.6 23.1-31.4-.1-22-9.5-37.3-26.2-37.3m111.1 51-2.4 14.2c-5.6 3-12.9 5.2-23.2 5.2-20.7 0-36.6-13.6-36.6-36 0-22.2 18.6-36 36.2-36 10.9 0 16.8 2 22.3 4.9l2.4 14.5h-1.2l-1.3-2.8c-4-8.4-10.4-14.8-22.7-14.8-15.8 0-26.3 12.5-26.3 33.4 0 21.9 11.6 35.2 28.2 35.2 11.4 0 17.5-4.8 22.1-14.8l1.3-2.8zm82.7 18.1c-2 0-8.6-.2-12.5-.2s-13.4.2-15.4.2v-1.1l3.8-.4c3.6-.4 5.1-1.9 5.1-4.6 0-1.6-.5-3.9-1.3-6.1l-6-15.7h-26.5l-4.5 11.5c-1 2.6-1.9 6.5-1.9 8.8 0 3.5 1.8 5.7 5.4 6.1l3.6.4v1.1c-2 0-8-.2-11.9-.2s-9.6.2-11.7.2v-1.1l2-.3c4.1-.6 6.9-3.5 9.5-10.1l21.7-54.6 5.2-5.3h.9l23.7 61.3c2.1 5.6 4.5 7.9 7.9 8.4l2.9.4zm-27.3-30.3-12.2-32.1-12.5 32.1zm91.7 15.9-3.5 14.3h-11c-6.1 0-16-.1-19.9-.1s-17.5.2-19.7.2v-1.1l3.8-.5c4.9-.6 6-2.9 6-13v-40.4c0-10-1.1-12.4-6-13l-3.8-.5V94c2.2 0 10.5.2 14.3.2 3.9 0 13.1-.2 15.1-.2v1.1l-4 .5c-6.2.8-7.6 2.5-7.6 13v40.3c0 10.9 1.7 12.9 11.1 12.9h5.3c9.5 0 12.5-1.2 16.4-8.6l2.1-4zm69.2-14.6-.2-1.2c11.1-1.8 17.1-6.6 17.1-19.2 0-12.7-7.5-18.5-18-18.5-3.8 0-6.2.4-8.4 1.1V149c0 10.5 1.4 12.2 7.6 13l4 .5v1.1c-2 0-11.3-.2-15.1-.2-3.9 0-12.1.2-14.3.2v-1.1l3.8-.5c4.9-.6 6-2.9 6-13v-40.4c0-10-1.1-12.4-6-13l-3.8-.5V94c2.2 0 10.5.2 14.3.2 3.9 0 9.1-.1 13.9-.1 14.4 0 25.3 6.3 25.3 19.5-.1 12.7-10.9 19.8-26.2 21m104 28.8c-2.6.4-3.7.6-6.7.6-8.8 0-14.1-4.4-19-11.5l-14.4-21.2c-4 0-6.7-.1-9.1-.3v18c0 9.9 1.2 12.2 6.4 12.9l4.7.6v1.1c-2 0-11.3-.2-15.1-.2-3.9 0-11.6.2-13.8.2v-1.1l3.8-.5c4.9-.6 6-2.9 6-13v-40.4c0-10-1.1-12.4-6-13l-3.8-.5V94c2.2 0 10.5.2 14.3.2 3.9 0 10.7-.1 15.4-.1 14.2 0 23.7 6.7 23.7 17.8 0 8.7-8.1 15.2-17.6 18l14.9 21.7c6.1 8.9 9.1 11.2 16.1 10.7zm-38.8-67.7c-4.9 0-7.8.6-10.5 1.3v32.1c2.1.3 4.7.4 8.2.4 11.4 0 18.1-4.6 18.1-17.1 0-11.5-5.5-16.7-15.8-16.7m78.3 69.1c-20 0-34.1-13.6-34.1-36 0-22.2 15.7-36 34.1-36 20 0 34.1 13.6 34.1 36 0 22.2-15.7 36-34.1 36m-1.5-70.3c-14.3 0-23.1 11.6-23.1 31.4 0 21.9 9.4 37.3 26.2 37.3 14.3 0 23.1-11.6 23.1-31.4 0-22-9.4-37.3-26.2-37.3m78.9.6-4 .5c-6.2.8-7.6 2.5-7.6 13v49.8c0 12.6-4.7 17.1-21.9 23.9l-.5-1.2c11.7-5.6 14.3-8.9 14.3-19.1v-53.4c0-10.5-1.4-12.2-7.6-13l-4-.5V94c1.9 0 11.8.2 15.6.2 3.9 0 13.7-.2 15.6-.2zm67.1 55.6-2.9 12.8h-11.1c-6.1 0-17-.1-20.8-.1-3.9 0-17.5.2-19.7.2v-1.1l3.8-.5c4.9-.6 6-2.9 6-13v-40.4c0-10-1.1-12.4-6-13l-3.8-.5V94c2.2 0 15.8.2 19.7.2s18.4-.1 20.4-.1h8.5l2.9 12.8h-1.2l-1.8-3c-4.1-6.8-6.9-8-16.4-8h-2.8c-5.7 0-9 .5-11.4 1.2v29.4l9.5-.2c9.9-.2 12.5-1.3 13.2-7.2l.5-4.2h1.4c0 2-.2 8.6-.2 12.5s.2 9.7.2 12h-1.4l-.4-2.8c-.9-6.4-3.1-7.6-13.3-7.8l-9.5-.2V149c0 10.9 1.7 12.9 11.1 12.9h6.1c9.5 0 12.1-1 16.3-7.9l1.9-3.1zm75.4-5.3-2.4 14.2c-5.6 3-12.9 5.2-23.2 5.2-20.7 0-36.6-13.6-36.6-36 0-22.2 18.6-36 36.2-36 10.9 0 16.9 2 22.3 4.9l2.4 14.5h-1.2l-1.3-2.8c-4-8.4-10.4-14.8-22.7-14.8-15.8 0-26.3 12.5-26.3 33.4 0 21.9 11.6 35.2 28.2 35.2 11.4 0 17.5-4.8 22.1-14.8l1.3-2.8zm77.7-53.5-2.8 16.8h-1l-.5-4c-.8-6.7-3.4-8.1-13.3-8.3l-13-.2v52.7c0 10.5 1.4 12.2 7.6 13l4 .5v1.1c-1.9 0-11.8-.2-15.6-.2-3.9 0-13.7.2-15.6.2v-1.1l4-.5c6.2-.8 7.6-2.5 7.6-13V96.2l-11.9.2c-9.9.2-13 1.4-16 8.3l-1.7 4h-1l2.9-16.8h.6c2.6 2 2.6 2.4 31.6 2.4 29.5 0 30.1-.4 33.6-2.4z" class="logosvg"/>
</svg>
