<svg xmlns="http://www.w3.org/2000/svg" width="1543.929" height="409.818">
    <path d="M2354.452-240.167c-56.32.403-102.39 63-102.39 117.598 0 57.456 33.77 127.543 102.39 127.315 68.62-.227 104.235-75.682 104.235-127.315 0-57.033-47.913-118-104.235-117.598m0 2.142c47.139 0 59.856 52.06 59.856 115.456 0 83.648-15.34 124.917-59.856 124.838-44.515-.078-58.997-33.855-58.997-124.838 0-56.994 11.859-115.456 58.997-115.456m122.833 116.999c-.252-62.124 49.469-117.155 91.559-119.885 15.203-1.077 34.746 5.885 46.155 10.845 8.285 3.601 25.197-1.612 28.2-11.176h1.638v84.626h-1.638c0-3.608-15.672-82.167-74.355-82.167-43.346 0-47.533 76.217-47.533 117.757s1.262 123.777 51.845 123.777c24.503 0 42.641-10.72 47.343-32.409v-65.945h-20.568v-2.809h79.724v2.809h-19.664V.808h-1.6s-3.197-13.91-19.419-13.864c-20.733.06-40.285 18.072-64.12 17.852-63.033-.58-97.315-63.697-97.567-125.822m-379.846-110.805h-24.823v-2.79h86.957v2.79h-21.815l62.134 168.735c19.429-59.817 34.48-104.034 54.736-168.735h-21.578v-2.79h45.914v2.79h-20.909L2182.538 3.587zM2691.83-54.05l-.394-178.052h-23.628v-2.667h87.051v2.667h-23.614l.524 195.225c5.228 22.355 14.522 39.318 46.276 39.57s53.34-18.784 61.363-44.8v-189.995h-27.03v-2.589h221.234l.46 85.473h-2.126c-4.103-55.187-25.397-76.043-62.638-82.128-12.815-2.094-26.259-.541-43.254-.674v109.086c14.8 1.143 30.564.208 41.187-8.917 9.661-8.297 12.392-27.468 13.102-35.256h1.87v94.98h-2.024c-.585 0-1.362-23.835-12.948-35.143-11.661-11.382-26.511-14.18-41.187-11.469V-2.212c20.73 0 37.253 1.756 51.603-2.178 43.62-11.958 58.976-48.759 58.858-85.668h2.426V.547h-173.53v-2.759h19.62v-229.89h-42.392v189.995c-4.805 18.179-22.366 48.254-67.372 48.048-41.845-.19-83.347-19.056-83.438-59.99" style="fill:#000;fill-opacity:1" transform="translate(-3258.589 390.447)scale(1.57704)"/>
</svg>
