<svg xmlns="http://www.w3.org/2000/svg" width="157" height="36" fill="none" viewBox="0 0 157 36">
    <title>Wallpaper*</title>
    <desc>
        British visual arts magazine
    </desc>
    <path fill="#333" fill-rule="evenodd" d="M36.499 21.432c-2.842.324-3.773.808-3.773 2.842 0 1.687 1.023 2.481 2.301 2.481 1.37 0 2.258-.504 2.914-1.21V21.27zm-5.118-9.638c1.517-.542 2.97-.814 4.626-.814 2.751 0 4.653.712 5.576 2.223.71.913.987 2.127.97 4.57v6.869c0 1.108.868 1.679 1.741 1.858l-1.79 3.293a6.3 6.3 0 0 1-1.776-.412c-.938-.374-1.762-1.012-2.087-1.987-.275.49-.63.85-.965 1.184-.917.917-2.305 1.334-3.596 1.334-3.567 0-5.995-1.723-5.995-5.45 0-3.824 2.392-5.653 7.887-5.923.166 0 1.787-.145 1.969-.128V17.33c0-2.152-.392-2.635-2.484-2.635-1.703 0-3.158.656-5.348 1.63l-1.32-3.34c.91-.47 1.51-.805 2.592-1.19m14.352 17.648h4.63V2.309h-4.63zm7.493 0h4.629V2.309h-4.629zM0 6.055l5.905 23.387h5.302l3.356-16.61 3.329 16.61h5.15l5.975-23.387h-4.799l-3.502 17.327L17.24 6.055h-5.076l-3.47 17.46-3.447-17.46zm86.377 15.377c-2.843.324-3.775.808-3.775 2.842 0 1.687 1.024 2.481 2.302 2.481 1.37 0 2.258-.504 2.914-1.21V21.27zm-5.12-9.638c1.518-.542 2.971-.814 4.627-.814 2.752 0 4.653.712 5.576 2.223.708.913.986 2.127.97 4.57v6.869c0 1.108.868 1.679 1.741 1.858l-1.788 3.293a6.3 6.3 0 0 1-1.846-.44c-.91-.378-1.701-1.007-2.018-1.96-.276.49-.63.85-.965 1.185-.919.917-2.307 1.334-3.598 1.334-3.565 0-5.994-1.723-5.994-5.45 0-3.824 2.392-5.653 7.887-5.923.166 0 1.786-.145 1.97-.128V17.33c0-2.152-.392-2.635-2.484-2.635-1.704 0-3.16.656-5.35 1.63l-1.318-3.34c.91-.47 1.509-.805 2.59-1.19m43.283 6.913v-.316c0-2.482-.665-4.194-3.006-4.194-1.866 0-3.081.996-3.171 4.476l.002.034zm4.63 9.266c-1.676 1.113-3.947 1.956-6.597 1.956-5.585 0-8.993-3.476-8.993-9.44 0-3.131.744-5.358 2.229-7.02 1.504-1.688 3.521-2.503 6.036-2.503 2.381 0 4.322.73 5.534 2.057 1.479 1.598 2.148 3.942 2.148 7.278v1.53h-11.008c0 3.247 2.039 4.38 4.401 4.38 1.835 0 3.557-.518 5.183-1.395zm11.22-16.989c.857 0 1.388.106 1.991.346l-.962 4.109c-.525-.189-1.124-.312-1.953-.312-1.297 0-2.416.451-3.431 1.28v13.035h-4.701V16.165c0-1.159-.134-3.992-.318-4.479l3.654-.537c.202.352 1.076 2.505 1.11 2.991.71-1.119 1.673-2.185 2.69-2.71.552-.293 1.433-.444 1.92-.444zM68.497 26.601c1.31 0 2.233-.17 2.81-1.301.498-.98.736-2.715.736-5.272 0-1.94-.24-3.284-.715-4.114-.492-.88-1.322-1.262-2.489-1.262-1.364 0-2.443.487-3.476 1.303v9.547c.717.522 1.817 1.099 3.134 1.099m-4.275-15.436c.323.471.884 2.085.9 2.354 1.082-1.78 3.207-2.536 4.874-2.536 1.442 0 2.769.404 3.801 1.119 1.99 1.371 3.22 3.931 3.22 8.013 0 3.764-.828 6.316-2.712 8.036-1.24 1.122-2.893 1.748-4.816 1.748-1.825 0-3.233-.607-4.177-1.306.006.318.034 1.42.034 1.672v5.484h-4.544V16.164c0-1.159-.06-3.992-.244-4.48zm39.238 15.436c1.312 0 2.234-.17 2.81-1.301.5-.98.735-2.715.735-5.272 0-1.94-.237-3.284-.713-4.114-.492-.88-1.323-1.262-2.49-1.262-1.364 0-2.443.487-3.476 1.303v9.547c.717.522 1.817 1.099 3.134 1.099m-4.274-15.436c.321.471.885 2.085.9 2.354 1.082-1.78 3.207-2.536 4.874-2.536 1.444 0 2.767.404 3.801 1.119 1.991 1.371 3.219 3.931 3.219 8.013 0 3.764-.828 6.316-2.711 8.036-1.24 1.122-2.893 1.748-4.816 1.748-1.825 0-3.232-.607-4.178-1.306.005.318.035 1.42.035 1.672v5.484h-4.544V16.164c0-1.159-.06-3.992-.245-4.48zM147.72 0v4.627l-4.455-1.448-1.02 3.139 4.435 1.441-2.727 3.754 2.67 1.94 2.701-3.718 2.701 3.718 2.671-1.94-2.728-3.754 4.435-1.441-1.02-3.139-4.455 1.448V0z" clip-rule="evenodd"/>
</svg>
